<svg xmlns="http://www.w3.org/2000/svg" width="24" height="24" fill="none" viewBox="0 0 24 24"><rect width="16" height="2" x="4" y="4.25" fill="#745125"/><rect width="16" height="2" x="4" y="5.75" fill="#E62C46"/><rect width="16" height="2" x="4" y="7.25" fill="#F36D38"/><rect width="16" height="2" x="4" y="9" fill="#FFD23E"/><rect width="16" height="2" x="4" y="10.5" fill="#61BC51"/><rect width="16" height="2" x="4" y="12.25" fill="#1793E8"/><rect width="16" height="1.5" x="4" y="13.75" fill="#B73FBB"/><path fill="#212121" d="M3.75 3C3.33579 3 3 3.33579 3 3.75V21.25C3 21.6642 3.33579 22 3.75 22C4.16421 22 4.5 21.6642 4.5 21.25L4.5 16.5H20.25C20.6642 16.5 21 16.1642 21 15.75V3.75C21 3.33579 20.6642 3 20.25 3H3.75ZM4.5 4.5H19.5V15H4.5V4.5Z"/></svg>